<svg width="24" height="23" viewBox="0 0 24 23" fill="none" xmlns="http://www.w3.org/2000/svg">
<path d="M20.3295 3.34001C19.2706 2.27928 18.0126 1.43818 16.6277 0.865006C15.2428 0.29183 13.7583 -0.00212783 12.2595 1.15945e-05C10.0041 0.00910913 7.80198 0.686432 5.93132 1.94642C4.06067 3.20641 2.6054 4.99254 1.74934 7.07918C0.89328 9.16582 0.674839 11.4594 1.12161 13.6701C1.56838 15.8808 2.66032 17.9096 4.25949 19.5C5.31589 20.5613 6.57204 21.4029 7.95543 21.9762C9.33881 22.5494 10.822 22.843 12.3195 22.84C15.3396 22.8241 18.2304 21.6126 20.3594 19.4705C22.4884 17.3284 23.6822 14.4301 23.6795 11.41C23.682 9.91025 23.3872 8.42488 22.8122 7.03972C22.2372 5.65457 21.3934 4.39711 20.3295 3.34001ZM14.4195 5.00001C14.4213 5.28409 14.3665 5.56568 14.2583 5.82836C14.1502 6.09105 13.9908 6.32957 13.7895 6.53001C13.3843 6.93751 12.8341 7.16767 12.2595 7.17001C11.7107 7.13269 11.1966 6.88838 10.8211 6.48647C10.4456 6.08456 10.2367 5.55505 10.2367 5.00501C10.2367 4.45498 10.4456 3.92547 10.8211 3.52356C11.1966 3.12165 11.7107 2.87733 12.2595 2.84001C12.8324 2.84001 13.3818 3.06758 13.7868 3.47266C14.1919 3.87774 14.4195 4.42714 14.4195 5.00001ZM7.99949 4.09001C7.93889 4.3794 7.90872 4.67434 7.90949 4.97001C7.91214 6.11401 8.36845 7.21025 9.17832 8.01825C9.98819 8.82625 11.0855 9.28001 12.2295 9.28001C13.3718 9.28535 14.4697 8.83804 15.283 8.03595C16.0964 7.23385 16.5589 6.14227 16.5695 5.00001C16.5697 4.70106 16.5396 4.40286 16.4795 4.11001C17.1909 4.92083 17.6535 5.91956 17.8118 6.98657C17.9702 8.05357 17.8175 9.1436 17.3722 10.1261C16.9269 11.1085 16.2077 11.9418 15.301 12.526C14.3942 13.1102 13.3382 13.4206 12.2595 13.42C10.7724 13.4174 9.34705 12.8255 8.29554 11.774C7.24403 10.7225 6.65213 9.29706 6.64949 7.81001C6.62803 6.44641 7.10849 5.12248 7.99949 4.09001ZM12.2295 15.53C14.2891 15.5267 16.2634 14.7068 17.7195 13.25C18.5617 12.4043 19.2011 11.3786 19.5895 10.25C19.4154 12.082 18.565 13.7834 17.2042 15.0222C15.8433 16.261 14.0697 16.9483 12.2295 16.95C10.3897 16.9504 8.61607 16.2635 7.25639 15.024C5.89671 13.7846 5.04901 12.082 4.87949 10.25C5.39864 11.794 6.39111 13.1352 7.71593 14.0831C9.04074 15.0309 10.6305 15.5372 12.2595 15.53H12.2295ZM18.8195 18C17.9613 18.8633 16.9407 19.5482 15.8165 20.015C14.6923 20.4819 13.4868 20.7215 12.2695 20.72C9.87556 20.7271 7.57212 19.8058 5.84337 18.1498C4.11463 16.4938 3.09524 14.232 2.99949 11.84C3.51424 13.9049 4.70392 15.7387 6.37972 17.0504C8.05552 18.362 10.1214 19.0764 12.2495 19.08C14.3794 19.0765 16.4468 18.3596 18.1216 17.0436C19.7964 15.7277 20.9822 13.8887 21.4895 11.82C21.4093 14.1427 20.4558 16.3496 18.8195 18Z" fill="white"/>
</svg>
