<svg width="24" height="24" viewBox="0 0 24 24" fill="none" xmlns="http://www.w3.org/2000/svg">
<path d="M16.0001 22.027V19.157C16.0376 18.6801 15.9732 18.2008 15.8111 17.7508C15.649 17.3008 15.393 16.8904 15.0601 16.547C18.2001 16.197 21.5001 15.007 21.5001 9.54698C21.4998 8.1508 20.9628 6.80817 20.0001 5.79698C20.4559 4.57548 20.4237 3.22533 19.9101 2.02698C19.9101 2.02698 18.7301 1.67698 16.0001 3.50698C13.708 2.88676 11.2922 2.88676 9.00008 3.50698C6.27008 1.67698 5.09008 2.02698 5.09008 2.02698C4.57645 3.22533 4.54422 4.57548 5.00008 5.79698C4.0302 6.81568 3.4926 8.17044 3.50008 9.57698C3.50008 14.997 6.80008 16.187 9.94008 16.577C9.61107 16.9169 9.35734 17.3224 9.19539 17.7669C9.03343 18.2114 8.96688 18.685 9.00008 19.157V22.027" stroke="#F6F6F6" stroke-width="1.5" stroke-linecap="round" stroke-linejoin="round"/>
<path d="M9 20.027C6 21 3.5 20.027 2 17.027" stroke="#F6F6F6" stroke-width="1.5" stroke-linecap="round" stroke-linejoin="round"/>
</svg>
