<svg width="127" height="23" viewBox="0 0 127 23" fill="none" xmlns="http://www.w3.org/2000/svg">
<g clip-path="url(#clip0_2032_3544)">
<path d="M1.28986 6.25998C2.12778 4.72936 3.37857 3.46471 4.89986 2.60998C6.50605 1.7239 8.31568 1.27235 10.1499 1.29998C12.3566 1.23598 14.5226 1.90404 16.3099 3.19998C18.023 4.47128 19.2338 6.30517 19.7299 8.37998H14.3299C13.9632 7.57859 13.3639 6.90609 12.6099 6.44998C11.8503 6.00222 10.9815 5.77377 10.0999 5.78998C9.40787 5.76535 8.71901 5.89426 8.08274 6.16744C7.44647 6.44062 6.87859 6.85129 6.41986 7.36998C5.43282 8.55202 4.92599 10.0618 4.99986 11.6C4.92321 13.1369 5.42642 14.6465 6.40986 15.83C6.86859 16.3487 7.43647 16.7593 8.07274 17.0325C8.70901 17.3057 9.39787 17.4346 10.0899 17.41C10.9714 17.4262 11.8403 17.1977 12.5999 16.75C13.3539 16.2939 13.9532 15.6214 14.3199 14.82H19.7199C19.2328 16.8961 18.0243 18.7318 16.3099 20C14.5151 21.2788 12.3528 21.9387 10.1499 21.88C8.31479 21.9046 6.5051 21.4495 4.89986 20.56C3.38123 19.7063 2.13099 18.4456 1.28986 16.92C0.410119 15.2869 -0.0341527 13.4547 -0.000136782 11.6C-0.0317737 9.73919 0.412251 7.90113 1.28986 6.25998Z" fill="white"/>
<path d="M48.7 21.21C47.5876 20.7727 46.6183 20.0353 45.9 19.08C45.183 18.0909 44.7947 16.9016 44.79 15.68H50C50.0343 16.331 50.3128 16.9452 50.78 17.4C51.2625 17.8062 51.8799 18.0167 52.51 17.99C53.1252 18.0251 53.7334 17.8448 54.23 17.48C54.4392 17.3155 54.6062 17.1037 54.7175 16.8621C54.8288 16.6204 54.881 16.3558 54.87 16.09C54.8765 15.8591 54.8345 15.6294 54.7467 15.4158C54.6588 15.2022 54.5271 15.0094 54.36 14.85C54.0106 14.4968 53.6008 14.2089 53.15 14C52.4678 13.7227 51.77 13.4856 51.06 13.29C49.9692 12.9631 48.9032 12.5587 47.87 12.08C47.0271 11.6623 46.2966 11.0484 45.74 10.29C45.1093 9.39454 44.796 8.31391 44.85 7.21996C44.8075 6.3772 44.9667 5.53647 45.3146 4.76768C45.6625 3.9989 46.1889 3.32428 46.85 2.79996C48.3906 1.67868 50.2666 1.11448 52.17 1.19996C54.0927 1.10952 55.9893 1.67354 57.55 2.79996C58.2246 3.33076 58.7715 4.00609 59.1505 4.77621C59.5295 5.54634 59.7309 6.39167 59.74 7.24996H54.46C54.4559 6.95692 54.3895 6.66811 54.2654 6.40263C54.1413 6.13715 53.9622 5.90105 53.74 5.70996C53.2458 5.32369 52.6257 5.13481 52 5.17996C51.4768 5.15384 50.9629 5.32515 50.56 5.65996C50.3842 5.83387 50.2477 6.04348 50.1597 6.27463C50.0717 6.50579 50.0343 6.75312 50.05 6.99996C50.0442 7.32199 50.1306 7.63897 50.2989 7.91358C50.4672 8.18818 50.7104 8.40898 51 8.54996C51.9183 9.03825 52.8831 9.43355 53.88 9.72996C54.9466 10.0849 55.9888 10.5091 57 11C57.829 11.4127 58.5512 12.0116 59.11 12.75C59.7472 13.6162 60.0651 14.6761 60.01 15.75C60.0186 16.8587 59.7135 17.9472 59.13 18.89C58.507 19.861 57.6233 20.6373 56.58 21.13C55.3512 21.7165 54.0012 22.0043 52.64 21.97C51.2897 21.9756 49.9514 21.7174 48.7 21.21Z" fill="white"/>
<path d="M85.9301 1.53003V21.73H81.0001V9.62003L76.4901 21.73H72.4901L68.0001 9.59003V21.73H63.0601V1.53003H68.8701L74.5301 15.53L80.1401 1.53003H85.9301Z" fill="white"/>
<path d="M93.7897 20.6001C92.2148 19.737 90.9046 18.4614 89.9997 16.9101C89.0603 15.2892 88.5798 13.4432 88.6097 11.5701C88.5799 9.70323 89.0605 7.8637 89.9997 6.25006C90.9025 4.70664 92.2049 3.43531 93.7697 2.57006C95.3712 1.69745 97.1659 1.24023 98.9897 1.24023C100.814 1.24023 102.608 1.69745 104.21 2.57006C105.791 3.42033 107.103 4.69475 108 6.25006C108.924 7.86911 109.397 9.70617 109.37 11.5701C109.401 13.4408 108.928 15.2853 108 16.9101C107.111 18.4569 105.818 19.7326 104.26 20.6001C102.655 21.5019 100.84 21.9609 98.9997 21.9301C97.177 21.9465 95.3815 21.4881 93.7897 20.6001ZM102.88 15.8301C103.89 14.6472 104.412 13.124 104.34 11.5701C104.418 10.0123 103.895 8.48392 102.88 7.30006C101.846 6.279 100.452 5.70638 98.9997 5.70638C97.5471 5.70638 96.153 6.279 95.1197 7.30006C94.0999 8.48542 93.5769 10.0186 93.6597 11.5801C93.5816 13.1378 94.1042 14.6662 95.1197 15.8501C96.1491 16.8784 97.5447 17.456 98.9997 17.456C100.455 17.456 101.85 16.8784 102.88 15.8501V15.8301Z" fill="white"/>
<path d="M115.41 21.21C114.298 20.7727 113.328 20.0353 112.61 19.08C111.893 18.0909 111.505 16.9016 111.5 15.68H116.73C116.764 16.331 117.043 16.9452 117.51 17.4C117.993 17.8062 118.61 18.0167 119.24 17.99C119.855 18.0234 120.463 17.8433 120.96 17.48C121.169 17.3155 121.336 17.1037 121.447 16.8621C121.559 16.6204 121.611 16.3558 121.6 16.09C121.607 15.8591 121.564 15.6294 121.477 15.4158C121.389 15.2022 121.257 15.0094 121.09 14.85C120.729 14.5069 120.309 14.2324 119.85 14.04C119.172 13.7609 118.477 13.5238 117.77 13.33C116.679 13.0048 115.612 12.6004 114.58 12.12C113.737 11.7023 113.007 11.0884 112.45 10.33C111.819 9.43454 111.506 8.35392 111.56 7.25996C111.517 6.41721 111.677 5.57648 112.025 4.80769C112.372 4.03891 112.899 3.36429 113.56 2.83996C115.101 1.71869 116.977 1.15449 118.88 1.23996C120.803 1.15032 122.699 1.71427 124.26 2.83996C124.935 3.37077 125.481 4.04609 125.86 4.81622C126.239 5.58635 126.441 6.43167 126.45 7.28996H121.12C121.12 6.99614 121.056 6.70582 120.932 6.43966C120.807 6.17349 120.626 5.93801 120.4 5.74996C119.926 5.35781 119.324 5.15477 118.71 5.17996C118.187 5.15385 117.673 5.32516 117.27 5.65996C117.093 5.83269 116.955 6.04211 116.867 6.27357C116.779 6.50503 116.742 6.75294 116.76 6.99996C116.757 7.31376 116.842 7.62216 117.004 7.89062C117.167 8.15908 117.401 8.377 117.68 8.51996C118.597 9.01011 119.562 9.40549 120.56 9.69996C121.648 10.0622 122.71 10.4965 123.74 11C124.569 11.4127 125.291 12.0116 125.85 12.75C126.484 13.6175 126.798 14.6773 126.74 15.75C126.752 16.8578 126.451 17.9464 125.87 18.89C125.247 19.861 124.363 20.6373 123.32 21.13C122.091 21.7154 120.741 22.0032 119.38 21.97C118.02 21.9795 116.671 21.7212 115.41 21.21Z" fill="white"/>
<path d="M40.33 3.34001C39.2711 2.27928 38.013 1.43818 36.6282 0.865006C35.2433 0.29183 33.7588 -0.00212783 32.26 1.15945e-05C30.0046 0.00910913 27.8025 0.686432 25.9318 1.94642C24.0612 3.20641 22.6059 4.99254 21.7498 7.07918C20.8938 9.16582 20.6753 11.4594 21.1221 13.6701C21.5689 15.8808 22.6608 17.9096 24.26 19.5C25.3164 20.5613 26.5725 21.4029 27.9559 21.9762C29.3393 22.5494 30.8225 22.843 32.32 22.84C35.3401 22.8241 38.2309 21.6126 40.3599 19.4705C42.4889 17.3284 43.6827 14.4301 43.68 11.41C43.6825 9.91025 43.3877 8.42488 42.8127 7.03972C42.2377 5.65457 41.3939 4.39711 40.33 3.34001ZM34.42 5.00001C34.4218 5.28409 34.367 5.56568 34.2588 5.82836C34.1507 6.09105 33.9913 6.32957 33.79 6.53001C33.3848 6.93751 32.8346 7.16767 32.26 7.17001C31.7112 7.13269 31.1971 6.88838 30.8216 6.48647C30.4461 6.08456 30.2372 5.55505 30.2372 5.00501C30.2372 4.45498 30.4461 3.92547 30.8216 3.52356C31.1971 3.12165 31.7112 2.87733 32.26 2.84001C32.8328 2.84001 33.3822 3.06758 33.7873 3.47266C34.1924 3.87774 34.42 4.42714 34.42 5.00001ZM28 4.09001C27.9394 4.3794 27.9092 4.67434 27.91 4.97001C27.9126 6.11401 28.3689 7.21025 29.1788 8.01825C29.9887 8.82625 31.086 9.28001 32.23 9.28001C33.3723 9.28535 34.4702 8.83804 35.2835 8.03595C36.0969 7.23385 36.5594 6.14227 36.57 5.00001C36.5702 4.70106 36.5401 4.40286 36.48 4.11001C37.1914 4.92083 37.654 5.91956 37.8123 6.98657C37.9707 8.05357 37.818 9.1436 37.3727 10.1261C36.9274 11.1085 36.2082 11.9418 35.3014 12.526C34.3947 13.1102 33.3387 13.4206 32.26 13.42C30.7729 13.4174 29.3475 12.8255 28.296 11.774C27.2445 10.7225 26.6526 9.29706 26.65 7.81001C26.6285 6.44641 27.109 5.12248 28 4.09001ZM32.23 15.53C34.2896 15.5267 36.2639 14.7068 37.72 13.25C38.5622 12.4043 39.2016 11.3786 39.59 10.25C39.4159 12.082 38.5655 13.7834 37.2046 15.0222C35.8438 16.261 34.0702 16.9483 32.23 16.95C30.3902 16.9504 28.6166 16.2635 27.2569 15.024C25.8972 13.7846 25.0495 12.082 24.88 10.25C25.3991 11.794 26.3916 13.1352 27.7164 14.0831C29.0412 15.0309 30.631 15.5372 32.26 15.53H32.23ZM38.82 18C37.9618 18.8633 36.9412 19.5482 35.817 20.015C34.6928 20.4819 33.4873 20.7215 32.27 20.72C29.8761 20.7271 27.5726 19.8058 25.8439 18.1498C24.1151 16.4938 23.0957 14.232 23 11.84C23.5147 13.9049 24.7044 15.7387 26.3802 17.0504C28.056 18.362 30.1219 19.0764 32.25 19.08C34.3799 19.0765 36.4473 18.3596 38.1221 17.0436C39.7969 15.7277 40.9826 13.8887 41.49 11.82C41.4098 14.1427 40.4563 16.3496 38.82 18Z" fill="white"/>
</g>
<defs>
<clipPath id="clip0_2032_3544">
<rect width="126.74" height="22.84" fill="white"/>
</clipPath>
</defs>
</svg>
