<svg width="1440" height="810" viewBox="0 0 1440 810" fill="none" xmlns="http://www.w3.org/2000/svg">
<g opacity="0.5">
<path d="M208.495 56.3526L208.017 57.0776L208.37 57.8707L207.645 57.3929L206.852 57.7463L207.33 57.0213L206.977 56.2282L207.702 56.7059L208.495 56.3526Z" fill="white"/>
<path d="M82.4815 127.437L82.0038 128.162L82.3572 128.955L81.6322 128.478L80.8391 128.831L81.3168 128.106L80.9634 127.313L81.6884 127.791L82.4815 127.437Z" fill="white"/>
<path d="M101.868 14.3482L101.39 15.0732L101.743 15.8663L101.018 15.3886L100.225 15.7419L100.703 15.0169L100.35 14.2238L101.075 14.7016L101.868 14.3482Z" fill="white"/>
<path d="M42.6309 41.2741L42.1532 41.9991L42.5066 42.7922L41.7816 42.3145L40.9885 42.6678L41.4662 41.9428L41.1129 41.1497L41.8379 41.6275L42.6309 41.2741Z" fill="white"/>
<path d="M417.44 109.127L416.962 109.852L417.316 110.646L416.591 110.168L415.798 110.521L416.275 109.796L415.922 109.003L416.647 109.481L417.44 109.127Z" fill="white"/>
<path d="M685.623 59.5838L685.145 60.3088L685.498 61.1019L684.773 60.6242L683.98 60.9775L684.458 60.2525L684.105 59.4594L684.83 59.9371L685.623 59.5838Z" fill="white"/>
<path d="M435.75 236.218L435.272 236.943L435.625 237.736L434.9 237.258L434.107 237.612L434.585 236.887L434.232 236.094L434.957 236.571L435.75 236.218Z" fill="white"/>
<path d="M227.881 151.132L227.404 151.857L227.757 152.65L227.032 152.172L226.239 152.526L226.717 151.801L226.363 151.008L227.088 151.485L227.881 151.132Z" fill="white"/>
<path d="M219.265 318.073L218.787 318.798L219.141 319.591L218.416 319.113L217.623 319.467L218.1 318.742L217.747 317.949L218.472 318.426L219.265 318.073Z" fill="white"/>
<path d="M863.334 302.994L862.856 303.719L863.21 304.512L862.485 304.035L861.692 304.388L862.169 303.663L861.816 302.87L862.541 303.348L863.334 302.994Z" fill="white"/>
<path d="M1071.2 90.8178L1070.72 91.5428L1071.08 92.3359L1070.35 91.8582L1069.56 92.2115L1070.04 91.4865L1069.68 90.6934L1070.41 91.1712L1071.2 90.8178Z" fill="white"/>
<path d="M1367.39 280.377L1366.91 281.102L1367.26 281.895L1366.54 281.417L1365.75 281.77L1366.22 281.045L1365.87 280.252L1366.59 280.73L1367.39 280.377Z" fill="white"/>
<path d="M1231.68 618.567L1231.2 619.292L1231.56 620.085L1230.83 619.607L1230.04 619.96L1230.52 619.235L1230.16 618.442L1230.89 618.92L1231.68 618.567Z" fill="white"/>
<path d="M843.947 422.546L843.47 423.271L843.823 424.064L843.098 423.586L842.305 423.939L842.783 423.214L842.429 422.421L843.154 422.899L843.947 422.546Z" fill="white"/>
<path d="M550.993 337.46L550.515 338.185L550.868 338.978L550.143 338.5L549.35 338.853L549.828 338.128L549.475 337.335L550.2 337.813L550.993 337.46Z" fill="white"/>
<path d="M325.892 744.58L325.414 745.305L325.768 746.098L325.043 745.62L324.25 745.974L324.727 745.249L324.374 744.456L325.099 744.933L325.892 744.58Z" fill="white"/>
<path d="M64.1715 621.798L63.6937 622.523L64.0471 623.316L63.3221 622.838L62.529 623.191L63.0067 622.466L62.6534 621.673L63.3784 622.151L64.1715 621.798Z" fill="white"/>
<path d="M67.4029 248.065L66.9252 248.79L67.2785 249.583L66.5535 249.106L65.7605 249.459L66.2382 248.734L65.8848 247.941L66.6098 248.419L67.4029 248.065Z" fill="white"/>
<path d="M414.209 283.608L413.731 284.333L414.085 285.126L413.36 284.648L412.567 285.001L413.044 284.276L412.691 283.483L413.416 283.961L414.209 283.608Z" fill="white"/>
<path d="M1024.89 286.839L1024.41 287.564L1024.77 288.357L1024.04 287.879L1023.25 288.233L1023.72 287.508L1023.37 286.714L1024.1 287.192L1024.89 286.839Z" fill="white"/>
<path d="M907.493 539.943L907.015 540.668L907.368 541.461L906.643 540.983L905.85 541.336L906.328 540.611L905.975 539.818L906.7 540.296L907.493 539.943Z" fill="white"/>
<path d="M764.247 672.418L763.769 673.143L764.122 673.937L763.397 673.459L762.604 673.812L763.082 673.087L762.729 672.294L763.454 672.772L764.247 672.418Z" fill="white"/>
<path d="M566.071 373.002L565.594 373.727L565.947 374.52L565.222 374.042L564.429 374.396L564.907 373.671L564.553 372.878L565.278 373.355L566.071 373.002Z" fill="white"/>
<path d="M799.789 178.058L799.311 178.783L799.664 179.576L798.939 179.098L798.146 179.452L798.624 178.727L798.271 177.934L798.996 178.411L799.789 178.058Z" fill="white"/>
<path d="M105.099 732.733L104.621 733.458L104.975 734.251L104.25 733.773L103.457 734.126L103.934 733.401L103.581 732.608L104.306 733.086L105.099 732.733Z" fill="white"/>
<path d="M79.2501 407.467L78.7724 408.192L79.1257 408.985L78.4007 408.507L77.6076 408.861L78.0854 408.136L77.732 407.343L78.457 407.82L79.2501 407.467Z" fill="white"/>
<path d="M672.698 395.62L672.221 396.345L672.574 397.138L671.849 396.66L671.056 397.013L671.534 396.288L671.18 395.495L671.905 395.973L672.698 395.62Z" fill="white"/>
<path d="M500.372 550.713L499.894 551.438L500.248 552.231L499.523 551.753L498.73 552.107L499.207 551.382L498.854 550.589L499.579 551.066L500.372 550.713Z" fill="white"/>
<path d="M1336.15 62.8149L1335.68 63.5399L1336.03 64.333L1335.3 63.8552L1334.51 64.2086L1334.99 63.4836L1334.64 62.6905L1335.36 63.1682L1336.15 62.8149Z" fill="white"/>
<path d="M1427.7 17.5793L1427.22 18.3043L1427.58 19.0974L1426.85 18.6196L1426.06 18.973L1426.54 18.248L1426.18 17.4549L1426.91 17.9326L1427.7 17.5793Z" fill="white"/>
<path d="M1072.28 534.558L1071.8 535.283L1072.16 536.076L1071.43 535.598L1070.64 535.951L1071.11 535.226L1070.76 534.433L1071.49 534.911L1072.28 534.558Z" fill="white"/>
<path d="M615.235 624.773L614.28 626.223L614.986 627.809L613.536 626.854L611.95 627.56L612.906 626.11L612.199 624.524L613.649 625.48L615.235 624.773Z" fill="white"/>
<path d="M348.695 441.677L347.74 443.126L348.446 444.713L346.996 443.757L345.41 444.464L346.366 443.014L345.659 441.428L347.109 442.383L348.695 441.677Z" fill="white"/>
<path d="M992.764 131.489L991.808 132.939L992.515 134.526L991.065 133.57L989.479 134.277L990.434 132.827L989.728 131.241L991.178 132.196L992.764 131.489Z" fill="white"/>
<path d="M741.814 -4.2173L740.858 -2.76731L741.565 -1.18114L740.115 -2.13659L738.529 -1.42988L739.484 -2.87987L738.777 -4.46604L740.227 -3.51059L741.814 -4.2173Z" fill="white"/>
<path d="M507.02 -0.986216L506.064 0.463773L506.771 2.04994L505.321 1.09449L503.735 1.8012L504.69 0.351206L503.984 -1.23496L505.434 -0.279513L507.02 -0.986216Z" fill="white"/>
<path d="M965.838 628.004L964.882 629.454L965.589 631.04L964.139 630.085L962.553 630.791L963.508 629.342L962.801 627.755L964.251 628.711L965.838 628.004Z" fill="white"/>
<path d="M214.065 602.155L213.11 603.605L213.816 605.191L212.366 604.236L210.78 604.943L211.736 603.493L211.029 601.906L212.479 602.862L214.065 602.155Z" fill="white"/>
<path d="M60.0485 538.61L59.093 540.06L59.7998 541.646L58.3498 540.691L56.7636 541.397L57.719 539.947L57.0123 538.361L58.4623 539.317L60.0485 538.61Z" fill="white"/>
<path d="M7.27359 287.66L6.31815 289.11L7.02485 290.696L5.57486 289.741L3.9887 290.447L4.94414 288.997L4.23744 287.411L5.68743 288.367L7.27359 287.66Z" fill="white"/>
<path d="M789.9 33.0596L789.049 33.2345L788.738 34.0451L788.564 33.1947L787.753 32.8838L788.603 32.7089L788.914 31.8983L789.089 32.7487L789.9 33.0596Z" fill="white"/>
<path d="M1014.57 187.661L1013.72 187.835L1013.41 188.646L1013.23 187.796L1012.42 187.485L1013.27 187.31L1013.58 186.499L1013.76 187.35L1014.57 187.661Z" fill="white"/>
<path d="M712.98 135.873L712.13 136.048L711.819 136.859L711.644 136.008L710.834 135.697L711.684 135.522L711.995 134.712L712.17 135.562L712.98 135.873Z" fill="white"/>
<path d="M502.023 40.6754L501.172 40.8502L500.862 41.6609L500.687 40.8104L499.876 40.4995L500.726 40.3246L501.037 39.514L501.212 40.3644L502.023 40.6754Z" fill="white"/>
<path d="M968.11 485.439L967.259 485.614L966.948 486.424L966.774 485.574L965.963 485.263L966.813 485.088L967.124 484.277L967.299 485.128L968.11 485.439Z" fill="white"/>
<path d="M1265.13 482.392L1264.28 482.567L1263.97 483.378L1263.79 482.527L1262.98 482.217L1263.83 482.042L1264.14 481.231L1264.32 482.081L1265.13 482.392Z" fill="white"/>
<path d="M447.188 710.867L446.338 711.042L446.027 711.852L445.852 711.002L445.042 710.691L445.892 710.516L446.203 709.705L446.378 710.556L447.188 710.867Z" fill="white"/>
<path d="M869.866 556.266L869.016 556.441L868.705 557.251L868.53 556.401L867.719 556.09L868.57 555.915L868.881 555.104L869.056 555.955L869.866 556.266Z" fill="white"/>
<path d="M722.881 288.951L722.03 289.126L721.719 289.936L721.545 289.086L720.734 288.775L721.584 288.6L721.895 287.789L722.07 288.64L722.881 288.951Z" fill="white"/>
<path d="M275.833 417.658L274.983 417.833L274.672 418.644L274.497 417.793L273.686 417.482L274.537 417.307L274.847 416.497L275.022 417.347L275.833 417.658Z" fill="white"/>
<path d="M177.589 145.774L176.739 145.948L176.428 146.759L176.253 145.909L175.442 145.598L176.293 145.423L176.604 144.612L176.779 145.463L177.589 145.774Z" fill="white"/>
<path d="M664.24 154.151L663.389 154.326L663.078 155.137L662.903 154.286L662.093 153.975L662.943 153.8L663.254 152.99L663.429 153.84L664.24 154.151Z" fill="white"/>
<path d="M1093.77 588.252L1092.92 588.427L1092.61 589.238L1092.43 588.387L1091.62 588.076L1092.47 587.901L1092.79 587.091L1092.96 587.941L1093.77 588.252Z" fill="white"/>
<path d="M831.788 684.211L830.937 684.386L830.626 685.197L830.451 684.346L829.641 684.035L830.491 683.861L830.802 683.05L830.977 683.9L831.788 684.211Z" fill="white"/>
<path d="M636.822 676.596L635.972 676.77L635.661 677.581L635.486 676.731L634.675 676.42L635.526 676.245L635.837 675.434L636.012 676.285L636.822 676.596Z" fill="white"/>
<path d="M708.411 324.745L707.56 324.92L707.249 325.731L707.074 324.88L706.264 324.569L707.114 324.394L707.425 323.584L707.6 324.434L708.411 324.745Z" fill="white"/>
<path d="M1011.52 352.162L1010.67 352.337L1010.36 353.148L1010.18 352.297L1009.37 351.986L1010.22 351.811L1010.53 351.001L1010.71 351.851L1011.52 352.162Z" fill="white"/>
<path d="M128.086 253.157L127.236 253.331L126.925 254.142L126.75 253.292L125.939 252.981L126.79 252.806L127.101 251.995L127.276 252.846L128.086 253.157Z" fill="white"/>
<path d="M339.806 4.88118L338.956 5.05603L338.645 5.86668L338.47 5.01623L337.659 4.7053L338.51 4.53045L338.821 3.7198L338.995 4.57025L339.806 4.88118Z" fill="white"/>
<path d="M767.814 416.135L766.964 416.31L766.653 417.12L766.478 416.27L765.668 415.959L766.518 415.784L766.829 414.973L767.004 415.824L767.814 416.135Z" fill="white"/>
<path d="M257.555 687.258L256.705 687.433L256.394 688.243L256.219 687.393L255.408 687.082L256.259 686.907L256.57 686.096L256.744 686.947L257.555 687.258Z" fill="white"/>
<path d="M536.294 403.95L535.443 404.124L535.133 404.935L534.958 404.085L534.147 403.774L534.997 403.599L535.308 402.788L535.483 403.639L536.294 403.95Z" fill="white"/>
<path d="M952.117 796.925L951.267 797.1L950.956 797.911L950.781 797.06L949.97 796.749L950.821 796.575L951.132 795.764L951.306 796.614L952.117 796.925Z" fill="white"/>
<path d="M565.145 537.538L563.445 537.888L562.823 539.509L562.473 537.808L560.852 537.186L562.553 536.837L563.174 535.215L563.524 536.916L565.145 537.538Z" fill="white"/>
<path d="M506.142 219.597L504.442 219.947L503.82 221.568L503.47 219.867L501.849 219.245L503.55 218.896L504.171 217.274L504.521 218.975L506.142 219.597Z" fill="white"/>
<path d="M1180.9 455.687L1179.2 456.037L1178.58 457.658L1178.23 455.957L1176.61 455.335L1178.31 454.986L1178.93 453.364L1179.28 455.065L1180.9 455.687Z" fill="white"/>
<path d="M1099.41 182.28L1097.71 182.629L1097.09 184.251L1096.74 182.55L1095.12 181.928L1096.82 181.578L1097.44 179.957L1097.79 181.658L1099.41 182.28Z" fill="white"/>
<path d="M931.104 18.5397L929.403 18.8894L928.782 20.5107L928.432 18.8098L926.811 18.1879L928.512 17.8382L929.133 16.2169L929.483 17.9178L931.104 18.5397Z" fill="white"/>
<path d="M1433.75 472.442L1432.05 472.792L1431.43 474.413L1431.08 472.712L1429.45 472.09L1431.16 471.741L1431.78 470.119L1432.13 471.82L1433.75 472.442Z" fill="white"/>
<path d="M810.774 787.736L809.073 788.086L808.452 789.707L808.102 788.007L806.481 787.385L808.181 787.035L808.803 785.414L809.153 787.115L810.774 787.736Z" fill="white"/>
<path d="M297.469 237.875L295.768 238.225L295.146 239.846L294.797 238.145L293.175 237.523L294.876 237.174L295.498 235.552L295.848 237.253L297.469 237.875Z" fill="white"/>
<path d="M31.6771 453.402L29.9762 453.752L29.3544 455.373L29.0047 453.673L27.3834 453.051L29.0843 452.701L29.7061 451.08L30.0558 452.781L31.6771 453.402Z" fill="white"/>
<path d="M233.496 84.0357L231.795 84.3854L231.173 86.0067L230.824 84.3058L229.202 83.6839L230.903 83.3342L231.525 81.7129L231.875 83.4138L233.496 84.0357Z" fill="white"/>
</g>
</svg>
