<svg width="24" height="24" viewBox="0 0 24 24" fill="none" xmlns="http://www.w3.org/2000/svg">
<path fill-rule="evenodd" clip-rule="evenodd" d="M17.817 6.98903C17.464 6.48103 16.52 5.76703 14.991 6.07503C14.099 6.25403 13.566 6.69503 13.227 7.27703C12.866 7.89703 12.691 8.74003 12.691 9.72103C12.691 9.98624 12.5857 10.2406 12.3982 10.4281C12.2106 10.6157 11.9563 10.721 11.691 10.721C9.32504 10.721 7.07304 10.018 5.17804 8.11703C5.03481 8.8883 4.97846 9.6732 5.01004 10.457C5.06304 11.543 5.32204 12.632 5.93704 13.565C6.54204 14.482 7.53704 15.322 9.20104 15.85C9.3641 15.9017 9.51115 15.9944 9.62816 16.1192C9.74516 16.244 9.8282 16.3967 9.86934 16.5628C9.91047 16.7288 9.90832 16.9026 9.8631 17.0676C9.81788 17.2326 9.73109 17.3832 9.61104 17.505C9.0782 18.0519 8.4741 18.5245 7.81504 18.91C8.87504 19.02 9.89704 19.028 10.845 18.942C12.765 18.768 14.294 18.219 15.25 17.442C17.263 15.81 18.34 13.376 18.14 9.29803C18.106 8.62803 18.753 7.90503 19.065 7.35603C18.594 7.44403 18.122 7.42803 17.817 6.98903ZM4.59404 4.98403C4.7751 4.96299 4.95846 4.99183 5.12431 5.06744C5.29016 5.14305 5.43218 5.26255 5.53504 5.41303C7.01104 7.57203 8.78304 8.47003 10.75 8.67403C10.846 7.83303 11.073 7.00203 11.5 6.27003C12.126 5.19603 13.144 4.40603 14.598 4.11403C16.608 3.71003 18.138 4.43803 19.025 5.32903L20.817 4.99403C21.0046 4.95889 21.1982 4.97813 21.3752 5.04947C21.5521 5.12082 21.7049 5.24129 21.8157 5.39667C21.9264 5.55206 21.9903 5.73586 21.9999 5.9264C22.0096 6.11695 21.9645 6.30627 21.87 6.47203L20.15 9.49403C20.307 13.855 19.095 16.899 16.511 18.996C15.141 20.108 13.179 20.739 11.026 20.934C8.85604 21.13 6.40304 20.893 3.96504 20.181C3.75674 20.1203 3.57384 19.9934 3.44397 19.8196C3.31409 19.6457 3.24428 19.4344 3.24507 19.2174C3.24587 19.0004 3.31721 18.7896 3.44835 18.6167C3.57949 18.4438 3.7633 18.3183 3.97204 18.259C5.19804 17.91 6.13204 17.609 6.97504 17.082C5.77604 16.446 4.89304 15.614 4.26804 14.666C3.40004 13.348 3.07804 11.878 3.01404 10.553C2.95004 9.22803 3.14104 8.00003 3.34304 7.11503C3.45804 6.61003 3.59204 6.10403 3.77704 5.62003C3.8423 5.44942 3.95304 5.29994 4.09725 5.18782C4.24145 5.0757 4.41261 5.00522 4.59404 4.98403Z" fill="#F6F6F6"/>
</svg>
